<svg xmlns="http://www.w3.org/2000/svg" width="31.986" height="31.328" viewBox="0 0 31.986 31.328">
  <g id="coor_logo" transform="translate(-0.012 -0.004)">
    <path id="Path_1" data-name="Path 1" d="M18.19,4.789l2.11,5.835,5.689-2.66-2.7,5.592,5.933,2.078-5.933,2.074,2.7,5.592L20.3,20.641l-2.11,5.835-2.114-5.835L10.387,23.3l2.7-5.592L7.153,15.635l5.936-2.078-2.7-5.592,5.689,2.66Z" fill="#e96704"/>
    <path id="Path_2" data-name="Path 2" d="M29.832,2.837l1.33-1.75H32V10.96H30.742C29.877,5.25,24.795.925,18.323.925,11.4.925,5.163,6.557,5.163,15.491c0,9.438,5.784,14.92,13.07,14.92,7.121,0,11.026-4.144,12.513-9.578H32v9.873h-.8l-1.522-2.163c-.326-.453-.813-.2-1.012-.088a20.871,20.871,0,0,1-10.448,2.877c-10.7,0-18.2-6.263-18.2-15.8C.012,6.351,7.638,0,18.317,0A20.864,20.864,0,0,1,28.492,2.851c.214.122.866.508,1.334-.011" fill="#1d1d1b"/>
  </g>
</svg>
