<svg xmlns="http://www.w3.org/2000/svg" width="73.961" height="15.34" viewBox="0 0 73.961 15.34">
  <g id="coor_logo" transform="translate(-43.033 -7.961)">
    <path id="Path_3" data-name="Path 3" d="M61.844,15.679c0-4.189,3.747-7.714,8.267-7.714,4.684,0,8.027,3.083,8.027,7.644,0,4.211-3.729,7.692-8.267,7.692C65.163,23.309,61.844,20.221,61.844,15.679Zm12.876,0c0-4.564-1.934-7.2-4.8-7.2-2.938,0-4.707,2.376-4.707,7.1,0,4.587,1.934,7.2,4.849,7.2s4.656-2.35,4.656-7.1Z" fill="#1d1d1b"/>
    <path id="Path_4" data-name="Path 4" d="M81.856,15.679c0-4.189,3.747-7.714,8.267-7.714,4.684,0,8.027,3.083,8.027,7.644,0,4.211-3.729,7.692-8.267,7.692C85.177,23.309,81.856,20.221,81.856,15.679Zm12.876,0c0-4.564-1.934-7.2-4.8-7.2-2.938,0-4.707,2.376-4.707,7.1,0,4.587,1.934,7.2,4.849,7.2S94.733,20.431,94.733,15.679Z" fill="#1d1d1b"/>
    <path id="Path_5" data-name="Path 5" d="M116.893,22.538l-.081-.015c-1.03-.118-1.413-.494-2.391-2L111.315,15.7c2.222-.516,3.608-1.927,3.608-3.739,0-2.424-2.031-3.717-6.067-3.717l-6.908.022.077.4.562.07c1.1.1,1.242.166,1.242.354V22.078c0,.184-.427.354-1.049.424l-.789.076-.075.4h6.933l-.075-.4-.643-.072c-.836-.07-1.195-.166-1.195-.354V15.631a11.965,11.965,0,0,0,1.338.284l3.56,6.233.431.822h4.729ZM108.2,15.355a7.905,7.905,0,0,1-1.266-.184V8.757l.955-.022c2.391-.048,3.729,1.223,3.729,3.316s-1.289,3.231-3.418,3.3Z" fill="#1d1d1b"/>
    <path id="Path_6" data-name="Path 6" d="M57,18.5l-.71,1.645a4.94,4.94,0,0,1-4.516,2.634c-3.1,0-5.359-2.781-5.374-7.151.024-4.373,2.273-7.151,5.374-7.151a4.94,4.94,0,0,1,4.516,2.634L57,12.759h.592l-.65-3.973h-.867a13.789,13.789,0,0,0-4.467-.825c-5.138,0-8.576,3.036-8.576,7.5V15.8c0,4.469,3.438,7.5,8.576,7.5a13.48,13.48,0,0,0,4.467-.825h.867l.65-3.973Z" fill="#1d1d1b"/>
  </g>
</svg>
