<svg width="117" height="32" viewBox="0 0 117 32" fill="none" xmlns="http://www.w3.org/2000/svg">
<g>
<path d="M18.1896 4.78906L20.2996 10.6244L25.9885 7.96463L23.2864 13.5569L29.219 15.6346L23.2864 17.7087L25.9885 23.3009L20.2996 20.6411L18.1896 26.4765L16.076 20.6411L10.387 23.3009L13.0891 17.7087L7.15283 15.6346L13.0891 13.5569L10.387 7.96463L16.076 10.6244L18.1896 4.78906Z" fill="#E96704"></path>
<path d="M29.8317 2.83662L31.1621 1.08674H31.9979V10.9597H30.7424C29.8767 5.24961 24.7949 0.924649 18.3227 0.924649C11.4008 0.924649 5.16285 6.55741 5.16285 15.491C5.16285 24.9293 10.9473 30.411 18.2328 30.411C25.3533 30.411 29.2583 26.2665 30.7461 20.8327H31.996V30.7057H31.194L29.6724 28.5432C29.3464 28.0901 28.8592 28.3443 28.6606 28.4548C25.4414 30.2378 22.1434 31.332 18.2122 31.332C7.51076 31.332 0.0117188 25.0693 0.0117188 15.5352C0.0117188 6.35111 7.63817 0.00366211 18.3171 0.00366211C22.1697 0.00366211 25.3102 1.15674 28.4919 2.85136C28.7056 2.97293 29.3576 3.35974 29.8261 2.84031" fill="#1D1D1B"></path>
<path d="M61.8442 15.679C61.8442 11.4904 65.5917 7.96484 70.1111 7.96484C74.7955 7.96484 78.1382 11.0483 78.1382 15.609C78.1382 19.8198 74.4095 23.3011 69.8713 23.3011C65.1626 23.3085 61.8442 20.2213 61.8442 15.679ZM74.7205 15.679C74.7205 11.1146 72.7868 8.48059 69.92 8.48059C66.982 8.48059 65.2132 10.8567 65.2132 15.5832C65.2132 20.1698 67.1469 22.7817 70.0624 22.7817C72.978 22.7817 74.7187 20.4313 74.7187 15.679H74.7205Z" fill="#1D1D1B"></path>
<path d="M81.8564 15.679C81.8564 11.4904 85.6039 7.96484 90.1234 7.96484C94.8077 7.96484 98.1504 11.0483 98.1504 15.609C98.1504 19.8198 94.4217 23.3011 89.8835 23.3011C85.1767 23.3085 81.8564 20.2213 81.8564 15.679ZM94.7327 15.679C94.7327 11.1146 92.799 8.48059 89.9322 8.48059C86.9942 8.48059 85.2254 10.8567 85.2254 15.5832C85.2254 20.1698 87.1591 22.7817 90.0746 22.7817C92.9902 22.7817 94.7327 20.4313 94.7327 15.679Z" fill="#1D1D1B"></path>
<path d="M116.893 22.5384L116.812 22.5236C115.782 22.4057 115.399 22.03 114.421 20.5232L111.315 15.7009C113.537 15.1852 114.923 13.7742 114.923 11.9617C114.923 9.5377 112.892 8.24463 108.856 8.24463L101.948 8.26674L102.025 8.66829L102.587 8.73829C103.685 8.83407 103.829 8.90406 103.829 9.09194V22.0779C103.829 22.2621 103.402 22.4315 102.78 22.5015L101.991 22.577L101.916 22.9731H108.849L108.774 22.5734L108.131 22.5015C107.295 22.4315 106.936 22.3357 106.936 22.1479V15.631C107.221 15.7488 107.963 15.8446 108.274 15.9146L111.834 22.1479L112.265 22.9694H116.994L116.893 22.5384ZM108.204 15.3547C107.778 15.3276 107.354 15.266 106.938 15.1705V8.7567L107.893 8.7346C110.284 8.68671 111.622 9.95767 111.622 12.0502C111.622 14.1426 110.333 15.281 108.204 15.351V15.3547Z" fill="#1D1D1B"></path>
<path d="M56.9995 18.5026L56.2894 20.1474C55.2363 21.8163 53.9247 22.7815 51.7737 22.7815C48.6783 22.7815 46.4148 20.0001 46.3998 15.6309C46.4242 11.2581 48.6726 8.48038 51.7737 8.48038C53.9247 8.48038 55.2363 9.44557 56.2894 11.1144L57.0014 12.7593H57.5935L56.9433 8.78614H56.0758C55.1914 8.41774 53.2314 7.96094 51.6088 7.96094C46.471 7.96094 43.0327 10.9965 43.0327 15.4651C43.0327 15.5204 43.0327 15.5757 43.0327 15.6309C43.0327 15.6862 43.0327 15.7414 43.0327 15.7967C43.0327 20.2653 46.471 23.3009 51.6088 23.3009C53.2352 23.3009 55.1914 22.8551 56.0758 22.4757H56.9433L57.5935 18.5026H56.9995Z" fill="#1D1D1B"></path>
</g>
</svg>